<?xml version="1.0" encoding="utf-8"?>
<!-- Generator: Adobe Illustrator 25.4.1, SVG Export Plug-In . SVG Version: 6.00 Build 0)  -->
<svg version="1.1" id="Ebene_1" xmlns="http://www.w3.org/2000/svg" xmlns:xlink="http://www.w3.org/1999/xlink" x="0px" y="0px"
	 viewBox="0 0 20 20" style="enable-background:new 0 0 20 20;" xml:space="preserve">
<style type="text/css">
	.st0{fill-rule:evenodd;clip-rule:evenodd;fill:#3F3F3F;}
</style>
<path class="st0" d="M17,2H3C1.9,2,1,2.9,1,4v12c0,1.1,0.9,2,2,2h14c1.1,0,2-0.9,2-2V4C19,2.9,18.1,2,17,2z M18,6.93
	C18,6.97,17.97,7,17.93,7H7.07C7.03,7,7,6.97,7,6.93V3.07C7,3.03,7.03,3,7.07,3H17c0.55,0,1,0.45,1,1V6.93z"/>
</svg>
