<?xml version="1.0" encoding="utf-8"?>
<!-- Generator: Adobe Illustrator 19.2.1, SVG Export Plug-In . SVG Version: 6.00 Build 0)  -->
<svg version="1.1" id="Layer_1" xmlns="http://www.w3.org/2000/svg" xmlns:xlink="http://www.w3.org/1999/xlink" x="0px" y="0px"
     viewBox="0 0 32 32" enable-background="new 0 0 32 32" xml:space="preserve">
<g>
	<path fill="#3D4242" d="M13,3h-1l-1.5,3.55L1,29h4l2.54-6h9.92L20,29h4L14.5,6.55L13,3z M9.23,19l3.27-7.73L15.77,19H9.23z"/>
</g>
  <path fill="#3D4242" d="M23.5,3c-3.12,0-5.79,1.9-6.92,4.61L17.17,9H18h4h7v3h-7h-3.56l2.32,5.47C21.6,17.81,22.53,18,23.5,18
	c4.14,0,7.5-3.36,7.5-7.5S27.64,3,23.5,3z"/>
</svg>
