<?xml version="1.0" encoding="UTF-8" standalone="no"?>
<!-- Created with Inkscape (http://www.inkscape.org/) -->

<svg
   width="24"
   height="24"
   viewBox="0 0 6.3499999 6.3500002"
   version="1.1"
   id="svg5"
   inkscape:version="1.1.2 (0a00cf5339, 2022-02-04, custom)"
   sodipodi:docname="lock-24x24.inkscape.svg"
   xmlns:inkscape="http://www.inkscape.org/namespaces/inkscape"
   xmlns:sodipodi="http://sodipodi.sourceforge.net/DTD/sodipodi-0.dtd"
   xmlns="http://www.w3.org/2000/svg"
   xmlns:svg="http://www.w3.org/2000/svg"
   xmlns:rdf="http://www.w3.org/1999/02/22-rdf-syntax-ns#"
   xmlns:cc="http://creativecommons.org/ns#"
   xmlns:dc="http://purl.org/dc/elements/1.1/">
  <title
     id="title948">Lock Image Fixture 24×24</title>
  <sodipodi:namedview
     id="namedview7"
     pagecolor="#ffffff"
     bordercolor="#999999"
     borderopacity="1"
     inkscape:pageshadow="0"
     inkscape:pageopacity="0"
     inkscape:pagecheckerboard="0"
     inkscape:document-units="mm"
     showgrid="false"
     units="px"
     fit-margin-top="0"
     fit-margin-left="0"
     fit-margin-right="0"
     fit-margin-bottom="0"
     inkscape:zoom="17.103146"
     inkscape:cx="10.495145"
     inkscape:cy="18.973118"
     inkscape:window-width="2560"
     inkscape:window-height="1377"
     inkscape:window-x="-8"
     inkscape:window-y="-8"
     inkscape:window-maximized="1"
     inkscape:current-layer="layer1" />
  <defs
     id="defs2" />
  <g
     inkscape:label="Ebene 1"
     inkscape:groupmode="layer"
     id="layer1"
     transform="translate(46.26804,-6.1237111)">
    <rect
       style="fill:#cccccc;fill-opacity:1;stroke-width:0.133333"
       id="rect846"
       width="6.3499999"
       height="6.3499999"
       x="-46.26804"
       y="6.1237111"
       inkscape:export-filename="C:\dev\cm\ckeditor-plugins\master\fixtures\lock-24x24.png"
       inkscape:export-xdpi="96"
       inkscape:export-ydpi="96" />
    <g
       transform="matrix(0.04351047,0,0,0.04351047,-45.893336,6.5658567)"
       fill-rule="evenodd"
       id="g9075"
       inkscape:export-filename="C:\dev\cm\ckeditor-plugins\master\fixtures\lock-24x24.png"
       inkscape:export-xdpi="96"
       inkscape:export-ydpi="96">
      <path
         d="M 64.359,2 C 44.287,2 28.128,18.159 28.128,38.231 V 78.488 H 38.192 V 38.231 c 0,-14.496 11.67,-26.167 26.167,-26.167 14.497,0 26.167,11.67 26.167,26.167 V 78.488 H 100.59 V 38.231 C 100.59,18.159 84.431,2 64.359,2 Z"
         id="path9071" />
      <path
         d="m 22.05779,57.35913 h 84.60268 a 0.5,0.5 0 0 1 0.5,0.5 v 65.25911 a 0.5,0.5 0 0 1 -0.5,0.5 H 22.05779 a 0.5,0.5 0 0 1 -0.5,-0.5 V 57.85913 a 0.5,0.5 0 0 1 0.5,-0.5"
         id="path9073" />
    </g>
  </g>
  <metadata
     id="metadata946">
    <rdf:RDF>
      <cc:Work
         rdf:about="">
        <dc:title>Lock Image Fixture 24×24</dc:title>
      </cc:Work>
    </rdf:RDF>
  </metadata>
</svg>
