<svg width="24" height="24" viewBox="0 0 24 24" fill="none" xmlns="http://www.w3.org/2000/svg">
<path fill-rule="evenodd" clip-rule="evenodd" d="M8 4H21C21.5523 4 22 4.44771 22 5V8H8V4ZM1 5C1 3.89543 1.89543 3 3 3H21C22.1046 3 23 3.89543 23 5V19C23 20.1046 22.1046 21 21 21H3C1.89543 21 1 20.1046 1 19V5ZM12 19C14.4853 19 16.5 16.9853 16.5 14.5C16.5 12.0147 14.4853 10 12 10C9.51472 10 7.5 12.0147 7.5 14.5C7.5 16.9853 9.51472 19 12 19ZM11.5 14V11H12.5V14H15.5V15H12.5V18H11.5V15H8.5V14H11.5Z" fill="#3F3F3F"/>
</svg>
