<svg width="16" height="16" viewBox="0 0 16 16" fill="none" xmlns="http://www.w3.org/2000/svg">
<path fill-rule="evenodd" clip-rule="evenodd" d="M1 3C1 2.44772 1.44772 2 2 2H14C14.5523 2 15 2.44772 15 3V13C15 13.5523 14.5523 14 14 14H2C1.44772 14 1 13.5523 1 13V3ZM5 3H13.5C13.7761 3 14 3.22386 14 3.5V6H5V3ZM4 12C4.55228 12 5 11.5523 5 11C5 10.4477 4.55228 10 4 10C3.44772 10 3 10.4477 3 11C3 11.5523 3.44772 12 4 12ZM8 12C8.55229 12 9 11.5523 9 11C9 10.4477 8.55229 10 8 10C7.44772 10 7 10.4477 7 11C7 11.5523 7.44772 12 8 12ZM13 11C13 11.5523 12.5523 12 12 12C11.4477 12 11 11.5523 11 11C11 10.4477 11.4477 10 12 10C12.5523 10 13 10.4477 13 11Z" fill="#3F3F3F"/>
</svg>
