<svg width="24" height="24" viewBox="0 0 24 24" fill="none" xmlns="http://www.w3.org/2000/svg">
<path fill-rule="evenodd" clip-rule="evenodd" d="M8 4H21C21.5523 4 22 4.44771 22 5V8H8V4ZM1 5C1 3.89543 1.89543 3 3 3H21C22.1046 3 23 3.89543 23 5V19C23 20.1046 22.1046 21 21 21H3C1.89543 21 1 20.1046 1 19V5ZM6 18C6.82843 18 7.5 17.3284 7.5 16.5C7.5 15.6716 6.82843 15 6 15C5.17157 15 4.5 15.6716 4.5 16.5C4.5 17.3284 5.17157 18 6 18ZM13.5 16.5C13.5 17.3284 12.8284 18 12 18C11.1716 18 10.5 17.3284 10.5 16.5C10.5 15.6716 11.1716 15 12 15C12.8284 15 13.5 15.6716 13.5 16.5ZM18 18C18.8284 18 19.5 17.3284 19.5 16.5C19.5 15.6716 18.8284 15 18 15C17.1716 15 16.5 15.6716 16.5 16.5C16.5 17.3284 17.1716 18 18 18Z" fill="#3F3F3F"/>
</svg>
