<?xml version="1.0" encoding="utf-8"?>
<!-- Generator: Adobe Illustrator 25.0.0, SVG Export Plug-In . SVG Version: 6.00 Build 0)  -->
<svg version="1.1" id="Ebene_1" xmlns="http://www.w3.org/2000/svg" xmlns:xlink="http://www.w3.org/1999/xlink" x="0px" y="0px"
	 viewBox="0 0 24 24" style="enable-background:new 0 0 24 24;" xml:space="preserve">
<path d="M1,3v15c0,1.1,0.9,2,2,2h7v1c0,1.1,0.9,2,2,2h9c1.1,0,2-0.9,2-2V9c0-1.1-0.9-2-2-2h-4V3c0-1.1-0.9-2-2-2H3C1.9,1,1,1.9,1,3z
	 M11,20V9c0-0.55,0.45-1,1-1h5h4c0.55,0,1,0.45,1,1v12c0,0.55-0.45,1-1,1h-9c-0.55,0-1-0.45-1-1V20z M3,3.5C3,3.22,3.22,3,3.5,3h11
	C14.78,3,15,3.22,15,3.5S14.78,4,14.5,4h-11C3.22,4,3,3.78,3,3.5z"/>
</svg>
