<?xml version="1.0" encoding="utf-8"?>
<!-- Generator: Adobe Illustrator 25.4.1, SVG Export Plug-In . SVG Version: 6.00 Build 0)  -->
<svg version="1.1" id="Ebene_1" xmlns="http://www.w3.org/2000/svg" xmlns:xlink="http://www.w3.org/1999/xlink" x="0px" y="0px"
	 viewBox="0 0 20 20" style="enable-background:new 0 0 20 20;" xml:space="preserve">
<style type="text/css">
	.st0{fill-rule:evenodd;clip-rule:evenodd;fill:#3F3F3F;}
</style>
<path class="st0" d="M17,2H3C1.9,2,1,2.9,1,4v12c0,1.1,0.9,2,2,2h14c1.1,0,2-0.9,2-2V4C19,2.9,18.1,2,17,2z M4.5,16
	C3.67,16,3,15.33,3,14.5S3.67,13,4.5,13S6,13.67,6,14.5S5.33,16,4.5,16z M10,16c-0.83,0-1.5-0.67-1.5-1.5S9.17,13,10,13
	s1.5,0.67,1.5,1.5S10.83,16,10,16z M15.5,16c-0.83,0-1.5-0.67-1.5-1.5s0.67-1.5,1.5-1.5s1.5,0.67,1.5,1.5S16.33,16,15.5,16z
	 M18,6.93C18,6.97,17.97,7,17.93,7H7.07C7.03,7,7,6.97,7,6.93V3.07C7,3.03,7.03,3,7.07,3H17c0.55,0,1,0.45,1,1V6.93z"/>
</svg>
